PathFileType	3	(X/Y/Z)	C:\Users\koon_\Desktop\
DataRate	CameraRate	NumFrames	NumMarkers	Units	OrigDataRate	OrigDataStartFrame	OrigNumFrames
100.0	100.0	11	27	mm	100.0	754	2010	
Frame#	Time	get:LFHD			get:RFHD			get:LBHD			get:RBHD			get:C7			get:T10			get:CLAV			get:STRN			get:RBAK			get:LSHO			get:LUPA			get:LELB			get:LFRA			get:LWRA			get:LWRB			get:LFIN			get:RSHO			get:RUPA			get:RELB			get:RFRA			get:RWRA			get:RWRB			get:RFIN			get:LASI			get:RASI			get:LPSI			get:RPSI			
		X1	Y1	Z1	X2	Y2	Z2	X3	Y3	Z3	X4	Y4	Z4	X5	Y5	Z5	X6	Y6	Z6	X7	Y7	Z7	X8	Y8	Z8	X9	Y9	Z9	X10	Y10	Z10	X11	Y11	Z11	X12	Y12	Z12	X13	Y13	Z13	X14	Y14	Z14	X15	Y15	Z15	X16	Y16	Z16	X17	Y17	Z17	X18	Y18	Z18	X19	Y19	Z19	X20	Y20	Z20	X21	Y21	Z21	X22	Y22	Z22	X23	Y23	Z23	X24	Y24	Z24	X25	Y25	Z25	X26	Y26	Z26	X27	Y27	Z27	
754	7.53	89.341881	1528.3108	-62.435703	-67.755348	1523.4883	-60.904514	82.537216	1518.4867	-186.61742	-43.663536	1524.2261	-205.16068	-2.0887175	1343.9023	-224.51932	-15.475917	1089.1335	-293.48691	12.42891	1255.73	-54.629612	26.288139	1064.4716	-35.071049	-85.079132	1283.3518	-255.44774	166.78883	1323.5217	-170.72714	229.87636	1190.8612	-218.35194	262.13922	1033.1802	-287.47943	323.42651	996.76111	-186.11655	363.38867	939.95953	-126.32973	383.83813	907.36694	-183.6084	447.8765	893.09015	-129.73796	-147.20717	1330.9996	-134.28235	-270.51212	1135.4376	-153.84198	-288.79556	1042.6254	-220.68425	-342.56281	1017.5828	-135.59213	-428.39871	918.20691	-77.784317	-420.67392	884.37793	-142.2533	-494.98401	882.6004	-104.94121	134.73175	890.3446	-145.01051	-144.86311	871.66681	-128.39777	34.908337	920.89679	-335.13159	-69.586075	904.69531	-331.8085
755	7.54	88.231636	1533.76	-65.805115	-68.892532	1528.2876	-63.987366	81.262886	1523.4071	-189.90712	-45.128719	1528.3762	-208.23885	-2.1507845	1349.0265	-225.28853	-15.167656	1094.351	-293.44644	12.050623	1262.6853	-56.177387	25.909142	1072.1689	-35.301052	-84.642685	1288.5687	-256.38043	166.54863	1328.7102	-171.86758	229.44913	1196.0063	-219.16722	260.548	1037.585	-286.63806	319.17719	1000.9282	-183.40294	356.52856	943.79846	-121.9398	379.40527	911.53247	-178.39113	440.9917	895.53931	-119.88528	-147.74022	1336.2992	-136.06918	-269.90741	1140.2568	-153.45081	-287.85858	1046.8569	-220.0887	-340.26935	1020.7482	-134.69215	-424.06458	919.586	-76.047638	-416.59375	886.34729	-140.91078	-490.50272	883.25159	-102.8138	134.5854	895.33783	-144.28511	-144.45445	876.30591	-127.50038	34.984898	927.16504	-334.39816	-69.682213	910.91766	-330.534
756	7.55	87.147614	1538.4869	-69.228996	-69.906639	1532.3773	-66.975494	79.966942	1527.3322	-193.16328	-46.446331	1531.8761	-211.41644	-2.2673323	1353.5435	-226.2618	-15.203318	1099.0313	-294.29163	11.667357	1268.8889	-57.636116	25.635208	1078.9594	-35.645023	-84.250923	1293.0511	-257.58499	166.47212	1333.1862	-173.18205	228.90155	1200.3706	-219.70192	259.55365	1041.3563	-285.68033	315.21127	1004.6071	-180.49133	350.04611	947.18286	-117.5883	375.07135	915.11206	-172.88007	434.08475	897.57056	-110.41988	-148.34676	1340.848	-137.75998	-269.42667	1144.3444	-153.64197	-287.20319	1050.3005	-219.5885	-338.10623	1023.1191	-133.72084	-419.56918	920.24481	-74.115883	-412.6167	887.43152	-139.14534	-485.84689	883.23944	-100.36829	134.41739	899.45624	-143.12604	-143.96201	880.16797	-126.55334	35.058273	932.67749	-333.81537	-69.613472	916.41626	-330.36108
757	7.56	86.083916	1542.5466	-72.544884	-70.938278	1535.7316	-69.864456	78.656784	1530.3558	-196.4016	-47.824276	1533.9996	-214.32697	-2.3003216	1357.2611	-227.38274	-15.030679	1102.5732	-294.79813	11.388775	1274.3915	-59.176548	25.425196	1084.9167	-36.479717	-83.921219	1296.743	-258.90207	166.49348	1336.9448	-174.47719	228.50587	1203.894	-220.00835	259.17825	1044.3915	-284.50583	311.4805	1007.5646	-177.40155	343.73892	950.05774	-113.06422	370.82214	917.85583	-167.35291	426.95663	899.1095	-101.09952	-149.03754	1344.5946	-139.62604	-268.97324	1147.6538	-153.94067	-286.64621	1052.869	-219.16022	-336.02411	1024.6737	-132.6452	-414.95648	920.11151	-72.048485	-408.84241	887.92023	-137.43901	-481.32898	882.56238	-97.361092	134.20352	902.70551	-141.83752	-143.54289	883.211	-125.70042	35.159988	937.15558	-333.14713	-69.779213	921.0199	-329.75833
758	7.57	85.053528	1546.0265	-75.793663	-71.924629	1538.4183	-72.653778	77.293152	1532.5554	-199.5432	-49.253567	1535.6886	-217.27283	-2.3218703	1360.1501	-228.6454	-14.808716	1105.1278	-295.25903	11.240804	1279.1504	-60.468559	25.243216	1089.5631	-37.096333	-83.723564	1299.2937	-260.22629	166.5528	1339.9865	-175.95322	228.53488	1206.6172	-220.15266	259.33084	1046.63	-283.00116	307.97879	1009.8663	-173.95695	337.70215	952.37085	-108.3543	366.58493	919.81592	-161.43965	419.73477	899.91107	-92.544495	-149.68056	1347.5265	-141.5869	-268.72079	1150.149	-154.30864	-286.24237	1054.5533	-218.67262	-334.01538	1025.3091	-131.63008	-410.06268	919.12823	-69.665382	-405.24567	887.75244	-135.77591	-476.72922	881.04785	-94.016411	134.16551	904.64655	-141.55869	-143.16183	885.45483	-124.89483	35.182426	940.61517	-332.61185	-70.04274	924.64697	-329.21576
759	7.58	84.116219	1548.8989	-78.936729	-72.914795	1540.3998	-75.232216	75.92704	1534.0494	-202.58487	-50.579807	1536.4308	-220.011	-2.3250232	1362.0935	-230.23112	-14.59012	1106.6588	-295.65051	10.989508	1283.053	-61.57114	25.310898	1093.3278	-38.000122	-83.731377	1300.8989	-261.92599	166.5883	1342.2537	-177.50461	228.95099	1208.6782	-220.47832	259.89029	1048.0957	-281.28403	304.73703	1011.4481	-170.42316	331.86414	954.10516	-103.47051	362.26431	921.08899	-155.42776	412.53345	900.18414	-84.224937	-150.11081	1349.5321	-143.59973	-268.54486	1151.8096	-154.66681	-285.98364	1055.3483	-218.10579	-331.50879	1025.1185	-130.04013	-405.3985	917.30847	-67.370293	-401.89621	886.70313	-133.88498	-472.73428	878.46771	-89.088654	134.02655	905.92413	-140.9558	-142.99292	886.93365	-124.16563	35.271564	943.16827	-332.35468	-70.439507	927.19025	-328.01428
760	7.59	83.223007	1551.0502	-81.943604	-73.886658	1541.6866	-77.67672	74.571419	1535.0021	-205.48123	-51.993931	1536.495	-222.57031	-2.3963785	1363.2675	-232.2692	-14.316816	1107.3417	-296.13855	10.868574	1285.9646	-62.684513	25.311882	1095.7832	-38.45787	-83.880569	1301.4423	-263.60971	166.56723	1343.8425	-179.25366	229.43806	1209.7837	-220.62453	260.67734	1048.6896	-279.29993	301.63571	1012.3837	-166.82568	326.07065	955.15881	-98.683083	357.90567	921.63745	-149.36858	405.29166	899.9505	-76.14286	-150.42319	1350.5707	-145.87491	-268.45883	1152.6486	-154.87779	-285.91724	1055.3406	-217.41679	-329.55768	1024.026	-128.60681	-400.51294	914.75916	-64.882835	-399.14484	884.73938	-131.88167	-468.17398	875.25299	-84.800911	133.85573	906.43134	-140.51167	-142.96182	887.68677	-123.54884	35.405277	944.59143	-332.31329	-70.451706	929.18445	-328.2829
761	7.6	82.267731	1552.4471	-84.873619	-74.794098	1542.2542	-79.9925	73.198257	1535.4409	-208.27634	-53.502319	1535.4233	-223.65559	-2.5800719	1363.2338	-234.13983	-14.028569	1106.9685	-296.35138	10.655319	1287.8986	-63.718872	25.487684	1097.379	-39.357204	-84.183548	1301.1309	-265.78137	166.56155	1344.8152	-181.12903	230.1566	1210.3185	-220.77316	261.50488	1048.4817	-277.20477	298.59534	1012.6586	-163.02512	320.19193	955.5047	-93.600761	353.55334	921.51038	-143.30602	397.97623	899.1087	-68.258064	-150.62558	1350.8055	-148.146	-268.38373	1152.6572	-154.97966	-286.08444	1054.6409	-216.45505	-327.65973	1022.1744	-127.02782	-395.51041	911.41718	-62.285286	-395.52512	882.46515	-130.02028	-463.27145	871.19513	-80.307281	133.66704	906.13861	-140.14394	-143.02524	887.70526	-123.12136	35.562622	944.97357	-332.50763	-70.735596	930.03339	-327.02066
762	7.61	81.347801	1553.1901	-87.617943	-75.688194	1542.1331	-82.16835	71.867561	1535.4338	-210.89331	-54.668961	1535.322	-227.11783	-2.7018166	1362.4797	-236.32623	-13.697102	1105.8105	-296.6796	10.558668	1288.7656	-64.862572	25.576767	1097.8619	-40.032642	-84.43528	1300.0149	-268.13943	166.55803	1345.1228	-182.94402	230.74002	1210.2358	-221.04105	262.41595	1047.3606	-274.85391	295.70337	1012.2273	-159.30074	314.45477	955.1319	-88.553322	349.19162	920.71228	-137.28517	390.65207	897.74353	-60.535378	-150.72636	1350.3262	-150.46111	-268.2182	1151.9734	-154.95506	-286.31232	1053.4468	-215.63745	-325.68423	1019.6035	-125.16275	-390.28174	907.28821	-59.658451	-392.68243	879.69177	-128.46448	-458.19095	866.6062	-75.565552	133.43336	905.06622	-140.03754	-143.21841	886.96783	-122.78748	35.692589	944.43005	-332.88574	-70.898582	929.9823	-326.49695
763	7.62	80.451057	1553.2279	-90.191872	-76.595757	1541.3094	-84.272469	70.614159	1535.0486	-213.43243	-56.408112	1533.198	-226.21828	-2.7413917	1361.0746	-238.58699	-13.41544	1103.9823	-297.30145	10.477693	1288.5214	-66.266647	25.774515	1097.3962	-40.632507	-84.726418	1297.9718	-270.33224	166.55928	1344.8756	-184.69423	231.08047	1209.554	-221.28227	263.41025	1045.6228	-272.34143	292.90219	1011.099	-155.31465	309.05225	954.02246	-83.722115	344.77292	919.14557	-131.33116	383.29437	895.78632	-53.055996	-150.78848	1349.1382	-152.81747	-267.83423	1150.6185	-154.87953	-286.64822	1051.5293	-214.2491	-323.61728	1016.4512	-123.09796	-384.9458	902.59741	-57.098598	-389.2388	876.02997	-126.40852	-452.5661	861.06433	-70.732689	133.34508	903.24084	-140.03777	-143.4173	885.49176	-122.73212	35.823402	943.06848	-333.35532	-71.047867	929.07996	-326.39639
764	7.63	79.390419	1552.6262	-92.60997	-77.485451	1539.9542	-86.233604	69.379059	1534.2593	-215.79697	-57.242382	1532.7428	-231.36197	-2.7608786	1358.936	-240.82683	-13.133387	1101.449	-297.92804	10.298785	1287.0459	-67.647072	25.924313	1095.9562	-41.33358	-85.004868	1295.396	-272.67947	166.53062	1344.0848	-186.43541	231.67174	1208.4465	-221.04881	264.43643	1043.2064	-269.47345	290.1376	1009.2685	-151.36765	303.56787	952.09924	-78.809792	340.65182	916.961	-125.29961	375.91354	893.12543	-45.724205	-150.69316	1347.4473	-154.96248	-267.2858	1148.6293	-154.72748	-286.80353	1049.1721	-212.92049	-321.32355	1012.8004	-120.88046	-379.05981	897.38959	-53.821697	-385.71649	871.73334	-124.05986	-446.61224	854.79871	-65.680908	133.16368	900.80078	-140.18277	-143.72597	883.30188	-122.82493	35.897259	941.02203	-333.85153	-71.273811	927.40747	-326.64957
